<svg xmlns="http://www.w3.org/2000/svg" xmlns:svg="http://www.w3.org/2000/svg" xmlns:xlink="http://www.w3.org/1999/xlink" version="1.0" height="644.6397959589958pt" width="1160.9999985694885pt" viewBox="249 12.360209167003639 1168.9999985694885 650.6397959589958" ><defs><style type="text/css">
            @font-face {
                font-family: 'noto_regular';
                src: url('https://app.creately.com/diagram/assets/fonts/noto/noto-regular.woff') format('woff'),
                     url('https://app.creately.com/diagram/assets/fonts/noto/noto-regular.woff2') format('woff2');
                font-weight: normal;
                font-style: normal;
            }
        p {
            margin: 0;
        }
        </style></defs><defs><style>
            span{ display: inline-block; }
        </style></defs><g id="2oxyfsxif7"><g transform="translate(295 170)"><ellipse cx="20.3985" cy="10.10075" rx="10.19925" ry="10.10075" fill="rgba(255,255,255,1)" stroke="#ea5b67" stroke-width="1.5" stroke-linecap="round" stroke-linejoin="round"/><path d="M 20.3985,20.2015 L 20.3985,48.483599999999996 L 40.797,80.806 M 20.3985,48.483599999999996 L 0,80.806 M 2.03985,30.30225 L 38.757149999999996,30.30225" fill="none" stroke="#ea5b67" stroke-width="1.5" stroke-linecap="round" stroke-linejoin="round"/><rect x="0" y="0" width="40.797" height="80.806" fill="rgba(255,255,255,0.01)" stroke="rgba(255,255,255,0.01)" stroke-width="1.5" stroke-linecap="round" stroke-linejoin="round"/></g><g transform="translate(300.3985, 255.80599999999998) rotate(0, 15, 0)" width="30" height="19"><text text-decoration="none" x="1.5" fill="rgb(75, 75, 75)" font-size="10pt" font-family="Lato"  y="17">User</text><text text-decoration="none" x="28.5" fill="#4b4b4b" font-size="10pt" font-family="noto_regular"  y="17"></text></g></g><g id="dhndgbixdb"><g><path d="M 335,200 L 390,140" fill="none" stroke="#a0a0a0" stroke-width="1.5" stroke-linecap="round" stroke-linejoin="round"/></g></g><g id="cwe84unidi"><g transform="translate(345 80)"><ellipse cx="45.5" cy="30.5" rx="45.5" ry="30.5" fill="rgba(26,188,156,1)" stroke="#1abc9c" stroke-width="1.5" stroke-linecap="round" stroke-linejoin="round"/></g><g transform="translate(361.5, 93) rotate(0, 29, 17.5)" width="58" height="35"><text text-decoration="none" x="2.5" fill="rgb(255, 255, 255)" font-size="10pt" font-family="Lato"  y="14">Type&#160;</text><text text-decoration="none" x="34.5" fill="rgb(255, 255, 255)" font-size="10pt" font-family="Lato"  y="14">in&#160;</text><text text-decoration="none" x="48.5" fill="rgb(255, 255, 255)" font-size="10pt" font-family="Lato"  y="14">a&#160;</text><text text-decoration="none" x="11.5" fill="rgb(255, 255, 255)" font-size="10pt" font-family="Lato"  y="36">query</text><text text-decoration="none" x="46.5" fill="#4b4b4b" font-size="10pt" font-family="noto_regular"  y="36"></text></g></g><g id="cshrbfcmwz"><g transform="translate(540 25)"><ellipse cx="45.5" cy="30.5" rx="45.5" ry="30.5" fill="rgba(26,188,156,1)" stroke="#1abc9c" stroke-width="1.5" stroke-linecap="round" stroke-linejoin="round"/></g><g transform="translate(556, 30) rotate(0, 29.5, 25.5)" width="59" height="51"><text text-decoration="none" x="3" fill="rgb(255, 255, 255)" font-size="10pt" font-family="Lato"  y="14">Leave&#160;</text><text text-decoration="none" x="41" fill="rgb(255, 255, 255)" font-size="10pt" font-family="Lato"  y="14">an&#160;</text><text text-decoration="none" x="12.5" fill="rgb(255, 255, 255)" font-size="10pt" font-family="Lato"  y="33">audio&#160;</text><text text-decoration="none" x="3.5" fill="rgb(255, 255, 255)" font-size="10pt" font-family="Lato"  y="55">message</text><text text-decoration="none" x="55.5" fill="#4b4b4b" font-size="10pt" font-family="noto_regular"  y="55"></text></g></g><g id="1rzt1y4wsp"><g><path d="M 435,100 L 540,55" fill="none" stroke="#a0a0a0" stroke-width="1.5" stroke-linecap="round" stroke-linejoin="round" stroke-dasharray="5 5"/></g></g><g id="2kfegmdc9v"><g><path d="M 434,101 L 440,85" fill="none" stroke="#a0a0a0" stroke-width="1.5" stroke-linecap="round" stroke-linejoin="round"/></g></g><g id="5d0ofs3hlb"><g><path d="M 434,100 L 450,105" fill="none" stroke="#a0a0a0" stroke-width="1.5" stroke-linecap="round" stroke-linejoin="round"/></g></g><g id="180v6pyqop"><g transform="translate(407.15 73.25) rotate(-22.701608417257056)"><rect x="0" y="0" width="149.99999963541092" height="34.7496024189466" fill="rgba(255,255,255,0.01)" stroke="rgba(255,255,255,0.01)" stroke-width="NaN" stroke-linecap="round" stroke-linejoin="round"/></g><g transform="translate(438.5450347569236, 50.833832264565125) rotate(-22.7, 44.5, 9.5)" width="89" height="19"><text text-decoration="none" x="9.5" fill="rgb(75, 75, 75)" font-size="10pt" font-family="Lato"  y="17">&#x3C;&#x3C;extend&#x3E;&#x3E;</text><text text-decoration="none" x="79.5" fill="#4b4b4b" font-size="10pt" font-family="noto_regular"  y="17"></text></g></g><g id="fzkvgtunkd"><g transform="translate(415 155)"><ellipse cx="45.5" cy="30.5" rx="45.5" ry="30.5" fill="rgba(26,188,156,1)" stroke="#1abc9c" stroke-width="1.5" stroke-linecap="round" stroke-linejoin="round"/></g><g transform="translate(419, 176) rotate(0, 41.5, 9.5)" width="83" height="19"><text text-decoration="none" x="4.5" fill="rgb(255, 255, 255)" font-size="10pt" font-family="Lato"  y="17">View&#160;</text><text text-decoration="none" x="35.5" fill="rgb(255, 255, 255)" font-size="10pt" font-family="Lato"  y="17">Results</text><text text-decoration="none" x="78.5" fill="#4b4b4b" font-size="10pt" font-family="noto_regular"  y="17"></text></g></g><g id="5sufyadmsv"><g><path d="M 335,200 L 415,185" fill="none" stroke="#a0a0a0" stroke-width="1.5" stroke-linecap="round" stroke-linejoin="round"/></g></g><g id="agak7mmtig"><g transform="translate(430 245)"><ellipse cx="45.5" cy="30.5" rx="45.5" ry="30.5" fill="rgba(26,188,156,1)" stroke="#1abc9c" stroke-width="1.5" stroke-linecap="round" stroke-linejoin="round"/></g><g transform="translate(446, 258) rotate(0, 29.5, 17.5)" width="59" height="35"><text text-decoration="none" x="13" fill="rgb(255, 255, 255)" font-size="10pt" font-family="Lato"  y="14">Make&#160;</text><text text-decoration="none" x="2" fill="rgb(255, 255, 255)" font-size="10pt" font-family="Lato"  y="36">purchase</text><text text-decoration="none" x="57" fill="#4b4b4b" font-size="10pt" font-family="noto_regular"  y="36"></text></g></g><g id="1exovwgrko"><g><path d="M 335,199 L 430,270" fill="none" stroke="#a0a0a0" stroke-width="1.5" stroke-linecap="round" stroke-linejoin="round"/></g></g><g id="pukq6o2go0"><g><path d="M 475,245 L 465,215" fill="none" stroke="#a0a0a0" stroke-width="1.5" stroke-linecap="round" stroke-linejoin="round" stroke-dasharray="5 5"/></g></g><g id="2ec2j4scqh"><g transform="translate(435 350)"><ellipse cx="45.5" cy="30.5" rx="45.5" ry="30.5" fill="rgba(26,188,156,1)" stroke="#1abc9c" stroke-width="1.5" stroke-linecap="round" stroke-linejoin="round"/></g><g transform="translate(449, 363) rotate(0, 31.5, 17.5)" width="63" height="35"><text text-decoration="none" x="2.5" fill="rgb(255, 255, 255)" font-size="10pt" font-family="Lato"  y="14">Complete&#160;</text><text text-decoration="none" x="4" fill="rgb(255, 255, 255)" font-size="10pt" font-family="Lato"  y="36">checkout</text><text text-decoration="none" x="59" fill="#4b4b4b" font-size="10pt" font-family="noto_regular"  y="36"></text></g></g><g id="81to53hyy6"><g><path d="M 335,200 L 445,360" fill="none" stroke="#a0a0a0" stroke-width="1.5" stroke-linecap="round" stroke-linejoin="round"/></g></g><g id="52ijo3kt1x"><g><path d="M 479,305 L 480,350" fill="none" stroke="#a0a0a0" stroke-width="1.5" stroke-linecap="round" stroke-linejoin="round" stroke-dasharray="5 5"/></g></g><g id="1a9u2qfw9w"><g><path d="M 479,348 L 470,335" fill="none" stroke="#a0a0a0" stroke-width="1.5" stroke-linecap="round" stroke-linejoin="round"/></g></g><g id="8uf7q7dn2m"><g><path d="M 480,347 L 490,335" fill="none" stroke="#a0a0a0" stroke-width="1.5" stroke-linecap="round" stroke-linejoin="round"/></g></g><g id="wiur3ldteh"><g><path d="M 464,215 L 460,230" fill="none" stroke="#a0a0a0" stroke-width="1.5" stroke-linecap="round" stroke-linejoin="round"/></g></g><g id="2e71m38k6g"><g><path d="M 464,214 L 480,225" fill="none" stroke="#a0a0a0" stroke-width="1.5" stroke-linecap="round" stroke-linejoin="round"/></g></g><g id="17u72zo4mw"><g transform="translate(438 216)"><rect x="0" y="0" width="150" height="37" fill="rgba(255,255,255,0.01)" stroke="rgba(255,255,255,0.01)" stroke-width="NaN" stroke-linecap="round" stroke-linejoin="round"/></g><g transform="translate(467.5, 225) rotate(0, 45.5, 9.5)" width="91" height="19"><text text-decoration="none" x="10" fill="rgb(75, 75, 75)" font-size="10pt" font-family="Lato"  y="17">&#x3C;&#x3C;include&#x3E;&#x3E;</text><text text-decoration="none" x="81" fill="#4b4b4b" font-size="10pt" font-family="noto_regular"  y="17"></text></g></g><g id="23l0br1dvd"><g transform="translate(447 310)"><rect x="0" y="0" width="150" height="37" fill="rgba(255,255,255,0.01)" stroke="rgba(255,255,255,0.01)" stroke-width="NaN" stroke-linecap="round" stroke-linejoin="round"/></g><g transform="translate(476.5, 319) rotate(0, 45.5, 9.5)" width="91" height="19"><text text-decoration="none" x="10" fill="rgb(75, 75, 75)" font-size="10pt" font-family="Lato"  y="17">&#x3C;&#x3C;include&#x3E;&#x3E;</text><text text-decoration="none" x="81" fill="#4b4b4b" font-size="10pt" font-family="noto_regular"  y="17"></text></g></g><g id="8b5pi2uuep"><g transform="translate(735 145)"><ellipse cx="20.3985" cy="10.10075" rx="10.19925" ry="10.10075" fill="rgba(255,255,255,1)" stroke="#ea5b67" stroke-width="1.5" stroke-linecap="round" stroke-linejoin="round"/><path d="M 20.3985,20.2015 L 20.3985,48.483599999999996 L 40.797,80.806 M 20.3985,48.483599999999996 L 0,80.806 M 2.03985,30.30225 L 38.757149999999996,30.30225" fill="none" stroke="#ea5b67" stroke-width="1.5" stroke-linecap="round" stroke-linejoin="round"/><rect x="0" y="0" width="40.797" height="80.806" fill="rgba(255,255,255,0.01)" stroke="rgba(255,255,255,0.01)" stroke-width="1.5" stroke-linecap="round" stroke-linejoin="round"/></g><g transform="translate(720.8985, 230.80599999999998) rotate(0, 34.5, 0)" width="69" height="35"><text text-decoration="none" x="3" fill="rgb(75, 75, 75)" font-size="10pt" font-family="Lato"  y="14">Messaging&#160;</text><text text-decoration="none" x="11" fill="rgb(75, 75, 75)" font-size="10pt" font-family="Lato"  y="36">channel</text><text text-decoration="none" x="58" fill="#4b4b4b" font-size="10pt" font-family="noto_regular"  y="36"></text></g></g><g id="2lq0mwrdq9"><g><path d="M 435,113 L 740,175" fill="none" stroke="#a0a0a0" stroke-width="1.5" stroke-linecap="round" stroke-linejoin="round"/></g></g><g id="2asebpp2mc"><g transform="translate(835 60)"><ellipse cx="45.5" cy="30.5" rx="45.5" ry="30.5" fill="rgba(26,188,156,1)" stroke="#1abc9c" stroke-width="1.5" stroke-linecap="round" stroke-linejoin="round"/></g><g transform="translate(851, 73) rotate(0, 29.5, 17.5)" width="59" height="35"><text text-decoration="none" x="4.5" fill="rgb(255, 255, 255)" font-size="10pt" font-family="Lato"  y="14">Pass&#160;</text><text text-decoration="none" x="34.5" fill="rgb(255, 255, 255)" font-size="10pt" font-family="Lato"  y="14">the&#160;</text><text text-decoration="none" x="3.5" fill="rgb(255, 255, 255)" font-size="10pt" font-family="Lato"  y="36">message</text><text text-decoration="none" x="55.5" fill="#4b4b4b" font-size="10pt" font-family="noto_regular"  y="36"></text></g></g><g id="2ln4efz0p8"><g><path d="M 775,175 L 880,120" fill="none" stroke="#a0a0a0" stroke-width="1.5" stroke-linecap="round" stroke-linejoin="round"/></g></g><g id="avc17qh79x"><g transform="translate(845 165)"><ellipse cx="45.5" cy="30.5" rx="45.5" ry="30.5" fill="rgba(26,188,156,1)" stroke="#1abc9c" stroke-width="1.5" stroke-linecap="round" stroke-linejoin="round"/></g><g transform="translate(853.5, 178) rotate(0, 37, 17.5)" width="74" height="35"><text text-decoration="none" x="4" fill="rgb(255, 255, 255)" font-size="10pt" font-family="Lato"  y="14">Display&#160;</text><text text-decoration="none" x="50" fill="rgb(255, 255, 255)" font-size="10pt" font-family="Lato"  y="14">the&#160;</text><text text-decoration="none" x="11" fill="rgb(255, 255, 255)" font-size="10pt" font-family="Lato"  y="36">message</text><text text-decoration="none" x="63" fill="#4b4b4b" font-size="10pt" font-family="noto_regular"  y="36"></text></g></g><g id="1xzenaer8a"><g><path d="M 775,174 L 845,195" fill="none" stroke="#a0a0a0" stroke-width="1.5" stroke-linecap="round" stroke-linejoin="round"/></g></g><g id="2drxbno5cl"><g><path d="M 300,200 L 255,200" fill="none" stroke="#a0a0a0" stroke-width="1.5" stroke-linecap="round" stroke-linejoin="round"/></g></g><g id="26w3d8e3ax"><g><path d="M 255,200 L 255,425" fill="none" stroke="#a0a0a0" stroke-width="1.5" stroke-linecap="round" stroke-linejoin="round"/></g></g><g id="2g4aimj5ik"><g><path d="M 254,423 L 850,420" fill="none" stroke="#a0a0a0" stroke-width="1.5" stroke-linecap="round" stroke-linejoin="round"/></g></g><g id="5oi8qu72ng"><g><path d="M 850,419 L 890,225" fill="none" stroke="#a0a0a0" stroke-width="1.5" stroke-linecap="round" stroke-linejoin="round"/></g></g><g id="25bdkv5mjq"><g transform="translate(1025 145)"><ellipse cx="20.3985" cy="10.10075" rx="10.19925" ry="10.10075" fill="rgba(255,255,255,1)" stroke="#ea5b67" stroke-width="1.5" stroke-linecap="round" stroke-linejoin="round"/><path d="M 20.3985,20.2015 L 20.3985,48.483599999999996 L 40.797,80.806 M 20.3985,48.483599999999996 L 0,80.806 M 2.03985,30.30225 L 38.757149999999996,30.30225" fill="none" stroke="#ea5b67" stroke-width="1.5" stroke-linecap="round" stroke-linejoin="round"/><rect x="0" y="0" width="40.797" height="80.806" fill="rgba(255,255,255,0.01)" stroke="rgba(255,255,255,0.01)" stroke-width="1.5" stroke-linecap="round" stroke-linejoin="round"/></g><g transform="translate(1030.3985, 230.80599999999998) rotate(0, 15, 0)" width="30" height="51"><text text-decoration="none" x="1" fill="rgb(75, 75, 75)" font-size="10pt" font-family="Lato"  y="14">Chat&#160;</text><text text-decoration="none" x="4.5" fill="rgb(75, 75, 75)" font-size="10pt" font-family="Lato"  y="33">bot&#160;</text><text text-decoration="none" x="5" fill="rgb(75, 75, 75)" font-size="10pt" font-family="Lato"  y="55">API</text><text text-decoration="none" x="25" fill="#4b4b4b" font-size="10pt" font-family="noto_regular"  y="55"></text></g></g><g id="933azubkzr"><g><path d="M 923,100 L 1030,175" fill="none" stroke="#a0a0a0" stroke-width="1.5" stroke-linecap="round" stroke-linejoin="round"/></g></g><g id="vg99kgjybp"><g transform="translate(1095 71.95000000000002) rotate(3.1316230750626344e-15)"><ellipse cx="65.00000154972076" cy="32.00000548362732" rx="65.00000154972076" ry="32.00000548362732" fill="rgba(26,188,156,1)" stroke="#1abc9c" stroke-width="1.5" stroke-linecap="round" stroke-linejoin="round"/></g><g transform="translate(1102.5000015497208, 86.45000548362734) rotate(0, 57.5, 17.5)" width="115" height="35"><text text-decoration="none" x="5" fill="rgb(255, 255, 255)" font-size="10pt" font-family="Lato"  y="14">Forward&#160;</text><text text-decoration="none" x="58" fill="rgb(255, 255, 255)" font-size="10pt" font-family="Lato"  y="14">message&#160;</text><text text-decoration="none" x="15.5" fill="rgb(255, 255, 255)" font-size="10pt" font-family="Lato"  y="36">for&#160;</text><text text-decoration="none" x="35.5" fill="rgb(255, 255, 255)" font-size="10pt" font-family="Lato"  y="36">processing</text><text text-decoration="none" x="99.5" fill="#4b4b4b" font-size="10pt" font-family="noto_regular"  y="36"></text></g></g><g id="2mh5o5eoug"><g><path d="M 1065,175 L 1155,135" fill="none" stroke="#a0a0a0" stroke-width="1.5" stroke-linecap="round" stroke-linejoin="round"/></g></g><g id="1hqiylf9a4"><g transform="translate(1115 180)"><ellipse cx="60.00000184774399" cy="30.5" rx="60.00000184774399" ry="30.5" fill="rgba(26,188,156,1)" stroke="#1abc9c" stroke-width="1.5" stroke-linecap="round" stroke-linejoin="round"/></g><g transform="translate(1142.500001847744, 185) rotate(0, 32.5, 25.5)" width="65" height="51"><text text-decoration="none" x="2" fill="rgb(255, 255, 255)" font-size="10pt" font-family="Lato"  y="14">Forms&#160;</text><text text-decoration="none" x="43" fill="rgb(255, 255, 255)" font-size="10pt" font-family="Lato"  y="14">the&#160;</text><text text-decoration="none" x="4.5" fill="rgb(255, 255, 255)" font-size="10pt" font-family="Lato"  y="33">complete&#160;</text><text text-decoration="none" x="6.5" fill="rgb(255, 255, 255)" font-size="10pt" font-family="Lato"  y="55">message</text><text text-decoration="none" x="58.5" fill="#4b4b4b" font-size="10pt" font-family="noto_regular"  y="55"></text></g></g><g id="1rdf6qk52u"><g><path d="M 1064,174 L 1115,210" fill="none" stroke="#a0a0a0" stroke-width="1.5" stroke-linecap="round" stroke-linejoin="round"/></g></g><g id="5zscv80xor"><g transform="translate(1125.05 275)"><ellipse cx="52.50000500679016" cy="30.5" rx="52.50000500679016" ry="30.5" fill="rgba(26,188,156,1)" stroke="#1abc9c" stroke-width="1.5" stroke-linecap="round" stroke-linejoin="round"/></g><g transform="translate(1135.5500050067901, 288) rotate(0, 42, 17.5)" width="84" height="35"><text text-decoration="none" x="2.5" fill="rgb(255, 255, 255)" font-size="10pt" font-family="Lato"  y="14">Forwards&#160;</text><text text-decoration="none" x="61.5" fill="rgb(255, 255, 255)" font-size="10pt" font-family="Lato"  y="14">the&#160;</text><text text-decoration="none" x="14.5" fill="rgb(255, 255, 255)" font-size="10pt" font-family="Lato"  y="36">response</text><text text-decoration="none" x="69.5" fill="#4b4b4b" font-size="10pt" font-family="noto_regular"  y="36"></text></g></g><g id="3p4o6slaws"><g><path d="M 1065,175 L 1130,290" fill="none" stroke="#a0a0a0" stroke-width="1.5" stroke-linecap="round" stroke-linejoin="round"/></g></g><g id="2a8i1yhjo1"><g transform="translate(1300 16.1) rotate(3.540095778509328e-15)"><ellipse cx="57.49999928474426" cy="42.50000023841858" rx="57.49999928474426" ry="42.50000023841858" fill="rgba(26,188,156,1)" stroke="#1abc9c" stroke-width="1.5" stroke-linecap="round" stroke-linejoin="round"/></g><g transform="translate(1304.4999992847443, 41.10000023841859) rotate(0, 53, 17.5)" width="106" height="35"><text text-decoration="none" x="7.5" fill="rgb(255, 255, 255)" font-size="10pt" font-family="Lato"  y="14">Converts&#160;</text><text text-decoration="none" x="64.5" fill="rgb(255, 255, 255)" font-size="10pt" font-family="Lato"  y="14">audio&#160;</text><text text-decoration="none" x="5.5" fill="rgb(255, 255, 255)" font-size="10pt" font-family="Lato"  y="36">message&#160;</text><text text-decoration="none" x="60.5" fill="rgb(255, 255, 255)" font-size="10pt" font-family="Lato"  y="36">to&#160;</text><text text-decoration="none" x="76.5" fill="rgb(255, 255, 255)" font-size="10pt" font-family="Lato"  y="36">text</text><text text-decoration="none" x="100.5" fill="#4b4b4b" font-size="10pt" font-family="noto_regular"  y="36"></text></g></g><g id="6te65p3sor"><g><path d="M 1221.95,93.05 L 1300,65" fill="none" stroke="#a0a0a0" stroke-width="1.5" stroke-linecap="round" stroke-linejoin="round" stroke-dasharray="5 5"/></g></g><g id="xxd5upl09s"><g><path d="M 1220,92 L 1225,75" fill="none" stroke="#a0a0a0" stroke-width="1.5" stroke-linecap="round" stroke-linejoin="round"/></g></g><g id="2v3lc2yar2"><g><path d="M 1220,92 L 1235,100" fill="none" stroke="#a0a0a0" stroke-width="1.5" stroke-linecap="round" stroke-linejoin="round"/></g></g><g id="1vb826wxwx"><g transform="translate(1186.65 73.94999999999999) rotate(-20.234471589041267)"><rect x="0" y="0" width="150.00000089749494" height="34.74960370337095" fill="rgba(255,255,255,0.01)" stroke="rgba(255,255,255,0.01)" stroke-width="NaN" stroke-linecap="round" stroke-linejoin="round"/></g><g transform="translate(1218.530680594205, 54.812809607385816) rotate(-20.23, 44.5, 9.5)" width="89" height="19"><text text-decoration="none" x="9.5" fill="rgb(75, 75, 75)" font-size="10pt" font-family="Lato"  y="17">&#x3C;&#x3C;extend&#x3E;&#x3E;</text><text text-decoration="none" x="79.5" fill="#4b4b4b" font-size="10pt" font-family="noto_regular"  y="17"></text></g></g><g id="2iynoir0mv"><g><path d="M 775,175 L 960,360" fill="none" stroke="#a0a0a0" stroke-width="1.5" stroke-linecap="round" stroke-linejoin="round"/></g></g><g id="8vk3jztf35"><g><path d="M 960,360 L 1140,325" fill="none" stroke="#a0a0a0" stroke-width="1.5" stroke-linecap="round" stroke-linejoin="round"/></g></g><g id="1ves6wbzya"><g transform="translate(1030 390)"><ellipse cx="20.3985" cy="10.10075" rx="10.19925" ry="10.10075" fill="rgba(255,255,255,1)" stroke="#ea5b67" stroke-width="1.5" stroke-linecap="round" stroke-linejoin="round"/><path d="M 20.3985,20.2015 L 20.3985,48.483599999999996 L 40.797,80.806 M 20.3985,48.483599999999996 L 0,80.806 M 2.03985,30.30225 L 38.757149999999996,30.30225" fill="none" stroke="#ea5b67" stroke-width="1.5" stroke-linecap="round" stroke-linejoin="round"/><rect x="0" y="0" width="40.797" height="80.806" fill="rgba(255,255,255,0.01)" stroke="rgba(255,255,255,0.01)" stroke-width="1.5" stroke-linecap="round" stroke-linejoin="round"/></g><g transform="translate(1018.8985, 475.806) rotate(0, 31.5, 0)" width="63" height="67"><text text-decoration="none" x="9" fill="rgb(75, 75, 75)" font-size="10pt" font-family="Lato"  y="14">Natural&#160;</text><text text-decoration="none" x="1" fill="rgb(75, 75, 75)" font-size="10pt" font-family="Lato"  y="33">Language&#160;</text><text text-decoration="none" x="62" fill="rgb(75, 75, 75)" font-size="10pt" font-family="Lato"  y="33"></text><text text-decoration="none" x="2" fill="rgb(75, 75, 75)" font-size="10pt" font-family="Lato"  y="55">Processor</text><text text-decoration="none" x="61" fill="#4b4b4b" font-size="10pt" font-family="noto_regular"  y="55"></text></g></g><g id="2dnu7my5au"><g><path d="M 1070,420 L 1315,320" fill="none" stroke="#a0a0a0" stroke-width="1.5" stroke-linecap="round" stroke-linejoin="round"/></g></g><g id="603eo8t5rp"><g><path d="M 1315,320 L 1205,125" fill="none" stroke="#a0a0a0" stroke-width="1.5" stroke-linecap="round" stroke-linejoin="round"/></g></g><g id="12o0bs9kq5"><g transform="translate(1190 380)"><ellipse cx="45.5" cy="30.5" rx="45.5" ry="30.5" fill="rgba(26,188,156,1)" stroke="#1abc9c" stroke-width="1.5" stroke-linecap="round" stroke-linejoin="round"/></g><g transform="translate(1190, 401) rotate(0, 45.5, 9.5)" width="91" height="19"><text text-decoration="none" x="3.5" fill="rgb(255, 255, 255)" font-size="10pt" font-family="Lato"  y="17">Define&#160;</text><text text-decoration="none" x="45.5" fill="rgb(255, 255, 255)" font-size="10pt" font-family="Lato"  y="17">intents</text><text text-decoration="none" x="87.5" fill="#4b4b4b" font-size="10pt" font-family="noto_regular"  y="17"></text></g></g><g id="12kpdju5zk"><g><path d="M 1070,420 L 1190,415" fill="none" stroke="#a0a0a0" stroke-width="1.5" stroke-linecap="round" stroke-linejoin="round"/></g></g><g id="1hf4xwozw9"><g transform="translate(1195 445)"><ellipse cx="45.5" cy="30.5" rx="45.5" ry="30.5" fill="rgba(26,188,156,1)" stroke="#1abc9c" stroke-width="1.5" stroke-linecap="round" stroke-linejoin="round"/></g><g transform="translate(1214.5, 458) rotate(0, 26, 17.5)" width="52" height="35"><text text-decoration="none" x="4" fill="rgb(255, 255, 255)" font-size="10pt" font-family="Lato"  y="14">Classify&#160;</text><text text-decoration="none" x="4.5" fill="rgb(255, 255, 255)" font-size="10pt" font-family="Lato"  y="36">Intents</text><text text-decoration="none" x="47.5" fill="#4b4b4b" font-size="10pt" font-family="noto_regular"  y="36"></text></g></g><g id="1vh3n135dc"><g><path d="M 1070,419 L 1195,475" fill="none" stroke="#a0a0a0" stroke-width="1.5" stroke-linecap="round" stroke-linejoin="round"/></g></g><g id="2aq8oh2zpi"><g transform="translate(1195 515)"><ellipse cx="45.5" cy="30.5" rx="45.5" ry="30.5" fill="rgba(26,188,156,1)" stroke="#1abc9c" stroke-width="1.5" stroke-linecap="round" stroke-linejoin="round"/></g><g transform="translate(1216, 528) rotate(0, 24.5, 17.5)" width="49" height="35"><text text-decoration="none" x="3.5" fill="rgb(255, 255, 255)" font-size="10pt" font-family="Lato"  y="14">Extract&#160;</text><text text-decoration="none" x="2.5" fill="rgb(255, 255, 255)" font-size="10pt" font-family="Lato"  y="36">Entities</text><text text-decoration="none" x="46.5" fill="#4b4b4b" font-size="10pt" font-family="noto_regular"  y="36"></text></g></g><g id="28oheel97z"><g><path d="M 1070,420 L 1195,540" fill="none" stroke="#a0a0a0" stroke-width="1.5" stroke-linecap="round" stroke-linejoin="round"/></g></g><g id="26nj3ykknc"><g transform="translate(1190 585)"><ellipse cx="67.50000411272049" cy="37.500002562999725" rx="67.50000411272049" ry="37.500002562999725" fill="rgba(26,188,156,1)" stroke="#1abc9c" stroke-width="1.5" stroke-linecap="round" stroke-linejoin="round"/></g><g transform="translate(1194.5000041127205, 605.0000025629997) rotate(0, 63, 17.5)" width="126" height="35"><text text-decoration="none" x="19.5" fill="rgb(255, 255, 255)" font-size="10pt" font-family="Lato"  y="14">Pass&#160;</text><text text-decoration="none" x="49.5" fill="rgb(255, 255, 255)" font-size="10pt" font-family="Lato"  y="14">extracted&#160;</text><text text-decoration="none" x="5.5" fill="rgb(255, 255, 255)" font-size="10pt" font-family="Lato"  y="36">entities&#160;</text><text text-decoration="none" x="52.5" fill="rgb(255, 255, 255)" font-size="10pt" font-family="Lato"  y="36">and&#160;</text><text text-decoration="none" x="78.5" fill="rgb(255, 255, 255)" font-size="10pt" font-family="Lato"  y="36">intents</text><text text-decoration="none" x="120.5" fill="#4b4b4b" font-size="10pt" font-family="noto_regular"  y="36"></text></g></g><g id="1cla2etctj"><g><path d="M 1070,420 L 1195,610" fill="none" stroke="#a0a0a0" stroke-width="1.5" stroke-linecap="round" stroke-linejoin="round"/></g></g><g id="810lzi1wsx"><g><path d="M 1064,173 L 1140,260" fill="none" stroke="#a0a0a0" stroke-width="1.5" stroke-linecap="round" stroke-linejoin="round"/></g></g><g id="2g06wml9av"><g><path d="M 1140,259 L 1340,260" fill="none" stroke="#a0a0a0" stroke-width="1.5" stroke-linecap="round" stroke-linejoin="round"/></g></g><g id="3p9alupvsl"><g><path d="M 1340,259 L 1315,605" fill="none" stroke="#a0a0a0" stroke-width="1.5" stroke-linecap="round" stroke-linejoin="round"/></g></g></svg>